<svg width="777" height="258" viewBox="0 0 777 258" fill="none" xmlns="http://www.w3.org/2000/svg">
<path d="M96.75 161.25C94.6239 161.25 92.5454 161.88 90.7776 163.062C89.0098 164.243 87.6319 165.922 86.8183 167.886C86.0047 169.85 85.7918 172.012 86.2066 174.097C86.6213 176.183 87.6452 178.098 89.1486 179.601C90.652 181.105 92.5675 182.129 94.6528 182.543C96.7381 182.958 98.8995 182.745 100.864 181.932C102.828 181.118 104.507 179.74 105.688 177.972C106.87 176.205 107.5 174.126 107.5 172C107.5 169.149 106.367 166.415 104.351 164.399C102.335 162.383 99.6011 161.25 96.75 161.25ZM21.5 150.5C18.6489 150.5 15.9146 151.633 13.8986 153.649C11.8826 155.665 10.75 158.399 10.75 161.25V182.75C10.75 185.601 11.8826 188.335 13.8986 190.351C15.9146 192.367 18.6489 193.5 21.5 193.5C24.3511 193.5 27.0854 192.367 29.1014 190.351C31.1174 188.335 32.25 185.601 32.25 182.75V161.25C32.25 158.399 31.1174 155.665 29.1014 153.649C27.0854 151.633 24.3511 150.5 21.5 150.5ZM236.5 150.5C233.649 150.5 230.915 151.633 228.899 153.649C226.883 155.665 225.75 158.399 225.75 161.25V182.75C225.75 185.601 226.883 188.335 228.899 190.351C230.915 192.367 233.649 193.5 236.5 193.5C239.351 193.5 242.085 192.367 244.101 190.351C246.117 188.335 247.25 185.601 247.25 182.75V161.25C247.25 158.399 246.117 155.665 244.101 153.649C242.085 151.633 239.351 150.5 236.5 150.5ZM182.75 75.25H139.75V61.49C142.999 59.614 145.701 56.9203 147.587 53.6766C149.473 50.4328 150.477 46.752 150.5 43C150.5 37.2978 148.235 31.8292 144.203 27.7972C140.171 23.7652 134.702 21.5 129 21.5C123.298 21.5 117.829 23.7652 113.797 27.7972C109.765 31.8292 107.5 37.2978 107.5 43C107.523 46.752 108.527 50.4328 110.413 53.6766C112.299 56.9203 115.001 59.614 118.25 61.49V75.25H75.25C66.6968 75.25 58.4939 78.6478 52.4458 84.6958C46.3978 90.7439 43 98.9468 43 107.5V204.25C43 212.803 46.3978 221.006 52.4458 227.054C58.4939 233.102 66.6968 236.5 75.25 236.5H182.75C191.303 236.5 199.506 233.102 205.554 227.054C211.602 221.006 215 212.803 215 204.25V107.5C215 98.9468 211.602 90.7439 205.554 84.6958C199.506 78.6478 191.303 75.25 182.75 75.25ZM147.49 96.75L142.115 118.25H115.885L110.51 96.75H147.49ZM193.5 204.25C193.5 207.101 192.367 209.835 190.351 211.851C188.335 213.867 185.601 215 182.75 215H75.25C72.3989 215 69.6646 213.867 67.6486 211.851C65.6326 209.835 64.5 207.101 64.5 204.25V107.5C64.5 104.649 65.6326 101.915 67.6486 99.8986C69.6646 97.8826 72.3989 96.75 75.25 96.75H88.365L96.75 131.58C97.3386 133.965 98.7263 136.077 100.682 137.563C102.638 139.05 105.044 139.822 107.5 139.75H150.5C152.956 139.822 155.362 139.05 157.318 137.563C159.274 136.077 160.661 133.965 161.25 131.58L169.635 96.75H182.75C185.601 96.75 188.335 97.8826 190.351 99.8986C192.367 101.915 193.5 104.649 193.5 107.5V204.25ZM161.25 161.25C159.124 161.25 157.045 161.88 155.278 163.062C153.51 164.243 152.132 165.922 151.318 167.886C150.505 169.85 150.292 172.012 150.707 174.097C151.121 176.183 152.145 178.098 153.649 179.601C155.152 181.105 157.067 182.129 159.153 182.543C161.238 182.958 163.4 182.745 165.364 181.932C167.328 181.118 169.007 179.74 170.188 177.972C171.37 176.205 172 174.126 172 172C172 169.149 170.867 166.415 168.851 164.399C166.835 162.383 164.101 161.25 161.25 161.25Z" fill="#FDBA74"/>
<path d="M350.73 138.1C350.73 150.52 347.433 159.72 340.84 165.7C334.247 171.527 324.51 174.44 311.63 174.44H287.71V237H267.7V76H311.17C324.203 76 334.017 78.9133 340.61 84.74C347.357 90.4133 350.73 99.46 350.73 111.88V138.1ZM330.72 109.81C330.72 103.983 329.34 99.7667 326.58 97.16C323.973 94.5533 319.757 93.25 313.93 93.25H287.71V157.19H313.93C319.757 157.19 323.973 155.887 326.58 153.28C329.34 150.52 330.72 146.227 330.72 140.4V109.81ZM408.699 171.68L394.209 237H366.609L358.789 76H375.809L382.709 219.75L401.799 143.85H416.059L435.609 219.75L442.739 76H458.609L450.789 237H421.809L408.699 171.68ZM551.768 200.66C551.768 213.847 548.701 223.2 542.568 228.72C536.588 234.24 526.621 237 512.668 237H466.668V76H509.908C523.555 76 533.521 78.76 539.808 84.28C546.248 89.8 549.468 99 549.468 111.88V124.99C549.468 136.797 545.251 145.69 536.818 151.67C546.785 157.19 551.768 166.62 551.768 179.96V200.66ZM529.458 109.81C529.458 103.983 528.078 99.7667 525.318 97.16C522.711 94.5533 518.495 93.25 512.668 93.25H486.678V144.08H512.668C517.421 144.08 521.408 142.547 524.628 139.48C527.848 136.413 529.458 132.35 529.458 127.29V109.81ZM531.758 177.89C531.758 172.83 530.225 168.843 527.158 165.93C524.091 162.863 520.028 161.33 514.968 161.33H486.678V219.75H514.738C520.565 219.75 524.858 218.447 527.618 215.84C530.378 213.08 531.758 208.787 531.758 202.96V177.89ZM650.217 197.9C650.217 210.627 646.69 220.363 639.637 227.11C632.737 233.703 623.384 237 611.577 237H606.977C595.17 237 585.74 233.703 578.687 227.11C571.787 220.363 568.337 210.627 568.337 197.9V115.1C568.337 102.22 571.787 92.4833 578.687 85.89C585.587 79.2967 595.017 76 606.977 76H611.577C623.537 76 632.967 79.2967 639.867 85.89C646.767 92.4833 650.217 102.22 650.217 115.1V197.9ZM630.667 110.73C630.667 105.977 628.827 101.913 625.147 98.54C621.62 95.0133 617.097 93.25 611.577 93.25H606.977C601.457 93.25 596.857 95.0133 593.177 98.54C589.65 101.913 587.887 105.977 587.887 110.73V173.06L630.667 110.73ZM587.887 202.27C587.887 207.023 589.65 211.163 593.177 214.69C596.857 218.063 601.457 219.75 606.977 219.75H611.577C617.097 219.75 621.62 218.063 625.147 214.69C628.827 211.163 630.667 207.023 630.667 202.27V140.17L587.887 202.27ZM699.216 237V93.48H662.646V76H755.796V93.48H719.226V237H699.216Z" fill="#FDBA74"/>
</svg>
