<?xml version="1.0" standalone="no"?>
<!DOCTYPE svg PUBLIC "-//W3C//DTD SVG 20010904//EN"
 "http://www.w3.org/TR/2001/REC-SVG-20010904/DTD/svg10.dtd">
<svg version="1.0" xmlns="http://www.w3.org/2000/svg"
 width="700.000000pt" height="700.000000pt" viewBox="0 0 700.000000 700.000000"
 preserveAspectRatio="xMidYMid meet">
<metadata>
Created by potrace 1.14, written by Peter Selinger 2001-2017
</metadata>
<g transform="translate(0.000000,700.000000) scale(0.100000,-0.100000)"
fill="#000000" stroke="none">
<path d="M3402 6408 c-170 -26 -343 -155 -420 -311 -132 -268 -51 -577 195
-745 l33 -23 -2 -185 -3 -185 -650 -3 c-632 -2 -652 -3 -729 -24 -329 -91
-570 -343 -642 -674 -14 -65 -16 -223 -17 -1458 0 -762 3 -1412 6 -1445 20
-179 107 -361 238 -502 107 -113 251 -197 419 -244 l85 -23 1555 0 c855 0
1578 2 1605 6 283 35 536 218 668 483 44 87 64 155 84 280 8 53 8 2742 0 2825
-36 354 -297 654 -652 752 -78 21 -98 22 -675 24 -327 2 -621 3 -652 4 l-58 0
0 185 0 184 43 30 c58 40 138 129 175 194 212 373 -56 847 -487 861 -36 1 -90
-1 -119 -6z m-1007 -2039 c4 -5 123 -482 139 -559 1 -8 6 -26 9 -40 4 -14 25
-101 47 -195 40 -167 62 -227 104 -273 26 -30 94 -70 137 -82 19 -6 301 -10
669 -10 729 -1 706 -3 791 81 26 26 55 64 64 86 9 21 39 130 66 243 27 113 67
279 89 370 22 91 52 215 66 275 l26 110 207 -1 c230 -2 263 -8 335 -68 23 -19
55 -58 71 -87 l30 -54 3 -1377 c2 -1331 1 -1379 -17 -1428 -29 -76 -74 -125
-147 -161 l-66 -33 -1518 0 -1518 0 -66 33 c-46 23 -77 46 -101 78 -69 90 -65
3 -65 1499 l0 1353 21 57 c36 96 120 165 219 182 52 9 396 9 405 1z m1602 -9
c-2 -8 -35 -140 -73 -293 l-69 -277 -355 0 -356 1 -71 287 c-39 157 -70 289
-68 292 2 3 227 5 500 5 436 0 496 -2 492 -15z"/>
<path d="M2567 2618 c-219 -46 -307 -311 -158 -481 80 -91 231 -119 344 -64
61 31 116 88 143 153 25 58 22 167 -6 227 -57 121 -195 192 -323 165z"/>
<path d="M4295 2613 c-205 -60 -277 -314 -136 -476 81 -91 230 -119 344 -64
133 66 192 205 146 349 -47 148 -206 234 -354 191z"/>
<path d="M493 2900 c-73 -24 -136 -79 -170 -148 l-28 -57 0 -365 0 -365 27
-50 c32 -60 77 -105 138 -137 36 -19 60 -23 125 -23 69 1 87 4 134 30 61 34
111 90 137 155 17 40 18 80 18 395 l0 350 -25 55 c-65 140 -213 207 -356 160z"/>
<path d="M6330 2901 c-94 -33 -146 -81 -186 -176 -15 -35 -18 -82 -19 -365 0
-179 3 -347 8 -375 25 -139 149 -237 294 -231 112 4 200 62 254 166 24 45 24
46 24 410 l0 365 -28 57 c-31 62 -89 117 -151 143 -53 23 -142 25 -196 6z"/>
</g>
</svg>
